<?xml version="1.0" encoding="UTF-8"?> <svg xmlns="http://www.w3.org/2000/svg" width="164.453" height="28" viewBox="0 0 164.453 28"><defs><style>.a{fill:#a435f0;}</style></defs><g transform="translate(-138.9 -138.9)"><path class="a" d="M138.9,142.19v3.29l5.7-3.29,5.7,3.29v-3.29l-5.7-3.29Z"></path><path d="M147.4,247.723a2.712,2.712,0,1,1-5.422.028V240.5H139V248a4.853,4.853,0,0,0,1.6,3.9,5.992,5.992,0,0,0,4.071,1.36,6.137,6.137,0,0,0,4.09-1.36,4.9,4.9,0,0,0,1.627-3.97V240.5H147.4Z" transform="translate(-0.091 -91.992)"></path><path d="M443.616,236.7a6.374,6.374,0,0,0-4.687,1.8,6.442,6.442,0,0,0-1.829,4.76v.1a6.145,6.145,0,0,0,1.829,4.659,6.625,6.625,0,0,0,4.76,1.755,6.929,6.929,0,0,0,5.422-2.435l-2.215-1.277a4.478,4.478,0,0,1-3.106,1.195,3.409,3.409,0,0,1-3.74-3.106h9.64s.064-.607.064-1.186a6.2,6.2,0,0,0-1.728-4.466A5.784,5.784,0,0,0,443.616,236.7Zm-3.483,5.137a2.669,2.669,0,0,1,1.094-1.829,3.869,3.869,0,0,1,2.389-.79,3.185,3.185,0,0,1,2.2.818,2.436,2.436,0,0,1,.937,1.8Z" transform="translate(-270.332 -88.546)"></path><path d="M797.654,249.58l-3.621-9.08H791l5.11,12.6-.588,1.369c-.6,1.369-1.213,1.617-1.884,1.617h-1.084v2.647h1.342c1.939,0,3.207-.974,4.42-3.832,1.241-2.941,6.1-14.4,6.093-14.4h-3.033Z" transform="translate(-591.153 -91.833)"></path><path d="M288.683,194.727a6.064,6.064,0,0,0-3.97-1.431,5.821,5.821,0,0,0-4.439,1.921,6.627,6.627,0,0,0-1.774,4.727,6.7,6.7,0,0,0,1.774,4.746,5.909,5.909,0,0,0,4.439,1.893,5.612,5.612,0,0,0,3.97-1.45v1.177h2.959V188.7h-2.959Zm-.882,8a3.635,3.635,0,0,1-2.693,1.111,3.55,3.55,0,0,1-2.638-1.111,4.234,4.234,0,0,1,0-5.556,3.515,3.515,0,0,1,2.638-1.111,3.649,3.649,0,0,1,2.693,1.111,4.026,4.026,0,0,1,0,5.556Z" transform="translate(-126.771 -45.223)"></path><path d="M604.231,237.8a5.2,5.2,0,0,0-4.218,1.829,3.531,3.531,0,0,0-3.327-1.829,4.184,4.184,0,0,0-3.354,1.544v-1.3H590.4v12.425h2.932v-7.141a2.606,2.606,0,0,1,2.417-2.886c1.406,0,2.224,1.057,2.224,2.766v7.279H600.9v-7.159c0-1.7,1.011-2.886,2.463-2.886,1.406,0,2.224,1.057,2.224,2.766v7.279h2.959V242.8C608.55,239.546,606.814,237.8,604.231,237.8Z" transform="translate(-409.278 -89.549)"></path><path class="a" d="M1004.6,188a4.292,4.292,0,0,0-3.97,2.334V183H999v17.719h1.617v-2.04a4.291,4.291,0,0,0,4.025,2.353c3.207,0,5.2-2.481,5.2-6.47C1009.844,190.508,1007.832,188,1004.6,188Zm-.239,11.616c-2.408,0-3.8-1.856-3.8-5.091,0-3.253,1.36-5.11,3.74-5.11,2.445,0,3.841,1.856,3.841,5.091S1006.766,199.616,1004.358,199.616Z" transform="translate(-779.736 -40.047)"></path><path class="a" d="M1142.1,248.08c0,2.831-1.865,3.841-3.455,3.841a2.741,2.741,0,0,1-2.169-.79c-.533-.625-.763-1.627-.763-3.336V240.7H1134.1v7.766a5.227,5.227,0,0,0,1.1,3.759,4.5,4.5,0,0,0,6.9-.947v1.847h1.617V240.7H1142.1Z" transform="translate(-902.225 -92.174)"></path><path class="a" d="M1259.368,243.108l-1.636-.386c-1.572-.349-2.426-.781-2.426-2.077,0-1.222,1-1.948,2.674-1.948a4.01,4.01,0,0,1,3.308,1.691l.028.037,1.241-1.048-.028-.037a5.666,5.666,0,0,0-4.521-2.04c-2.6,0-4.347,1.415-4.347,3.52s1.342,2.849,3.511,3.364l1.709.414c1.443.358,2.555.735,2.555,2.086,0,1.4-1.1,2.206-3.014,2.233a4.494,4.494,0,0,1-3.979-2.1l-.028-.037-1.314.937.018.037a5.933,5.933,0,0,0,5.119,2.592c2.987-.028,4.843-1.47,4.843-3.768S1261.3,243.54,1259.368,243.108Z" transform="translate(-1010.103 -89.09)"></path><rect class="a" width="1.617" height="2.628" transform="translate(254.586 142.953)"></rect><rect class="a" width="1.617" height="12.434" transform="translate(254.586 148.502)"></rect><path class="a" d="M1427.887,237.4a4.112,4.112,0,0,0-3.869,2.16v-1.875H1422.4v12.434h1.618v-7.38a4.091,4.091,0,0,1,1.029-2.849,3.213,3.213,0,0,1,2.481-.993,2.786,2.786,0,0,1,2.169.79c.643.689.763,1.847.763,3.75v6.681h1.617v-7.03c0-2.785-.331-3.6-1.1-4.485A3.992,3.992,0,0,0,1427.887,237.4Z" transform="translate(-1163.59 -89.186)"></path><path class="a" d="M1555.907,246.268a4.459,4.459,0,0,1-4.108,2.72c-1.994,0-4.126-1.25-4.126-4.751V244.1h9.383v-.248c0-3.979-2.086-6.451-5.441-6.451-3.308,0-5.615,2.638-5.615,6.424,0,4.136,2.151,6.608,5.744,6.608a5.728,5.728,0,0,0,5.4-3.373l.018-.037-1.241-.8Zm-4.292-7.508a3.786,3.786,0,0,1,3.685,4.007h-7.582C1547.948,240.295,1549.428,238.76,1551.615,238.76Z" transform="translate(-1275.262 -89.18)"></path><path class="a" d="M1682.368,243.108l-1.636-.386c-1.571-.349-2.426-.781-2.426-2.077,0-1.222,1-1.948,2.674-1.948a4.01,4.01,0,0,1,3.308,1.691l.028.037,1.241-1.048-.028-.037a5.666,5.666,0,0,0-4.521-2.04c-2.6,0-4.347,1.415-4.347,3.52s1.342,2.849,3.51,3.364l1.709.414c1.443.358,2.555.735,2.555,2.086,0,1.4-1.1,2.206-3.014,2.233a4.5,4.5,0,0,1-3.979-2.1l-.028-.037-1.314.937.018.037a5.933,5.933,0,0,0,5.119,2.592c2.978-.028,4.834-1.47,4.843-3.768S1684.3,243.54,1682.368,243.108Z" transform="translate(-1393.406 -89.09)"></path><path class="a" d="M1798.568,243.108l-1.636-.386c-1.572-.349-2.426-.781-2.426-2.077,0-1.222,1-1.948,2.674-1.948a4.011,4.011,0,0,1,3.308,1.691l.028.037,1.241-1.048-.027-.037a5.666,5.666,0,0,0-4.522-2.04c-2.6,0-4.347,1.415-4.347,3.52s1.342,2.849,3.51,3.364l1.709.414c1.443.358,2.555.735,2.555,2.086,0,1.4-1.1,2.206-3.014,2.233a4.494,4.494,0,0,1-3.979-2.1l-.027-.037-1.314.937.018.037a5.933,5.933,0,0,0,5.119,2.592c2.987-.028,4.843-1.47,4.843-3.768S1800.5,243.54,1798.568,243.108Z" transform="translate(-1498.927 -89.09)"></path></g></svg> 